# xmcd CD database file
#
# Track frame offsets:
#	150
#	11743
#	27239
#	49303
#	62368
#	81155
#	91070
#	104284
#	118075
#	130611
#	153737
#	172600
#	185431
#
# Disc length: 2636 seconds
#
# Revision: 0
# Processed by: cddbd v1.4PL0 Copyright (c) Steve Scherf et al.
# Submitted via: CDex 1.50beta10
#
DISCID=9a0a4a0d
DTITLE=Yamile - Reina de la Guaracha
DYEAR=2003
DGENRE=Salsa
TTITLE0=PEPE ANTONIO
TTITLE1=LA TIMBA PIDE CANDELA
TTITLE2=VISITA LA HABANA
TTITLE3=LA SOPITA EN BOTELLA
TTITLE4=LA REINA DE LA RUMBA
TTITLE5=TATALIBABÁ
TTITLE6=AGUINALDO ANTILLANO
TTITLE7=VEN BERNABÉ
TTITLE8=TUYA MÁS QUE TUYA
TTITLE9=EN EL BAJÍO
TTITLE10=BAILA NEGRA
TTITLE11=LUNA SOBRE MATANZAS
TTITLE12=ABRÉ LA PUERTA QUERIDA
EXTD=YEAR: 2003
EXTT0=
EXTT1=
EXTT2=
EXTT3=
EXTT4=
EXTT5=
EXTT6=
EXTT7=
EXTT8=
EXTT9=
EXTT10=
EXTT11=
EXTT12=
PLAYORDER=
